# xmcd
#
# Track frame offsets: 
#        150
#        19117
#        35246
#        47014
#        68191
#        83887
#        101033
#        118764
#        134932
#        151460
#        168583
#        182044
#        194845
#        212526
#        229248
#
# Disc length: 3278 seconds
#
# Revision: 0
# Processed by: cddbd v1.5.2PL0 Copyright (c) Steve Scherf et al.
# Submitted via: ExactAudioCopy v1.3
#
DISCID=e40ccc0f
DTITLE=kathy and The Kilowatts - Let's Do This Thing!
DYEAR=2017
DGENRE=Blues
TTITLE0=Let's Do This Thing
TTITLE1=Call Me Mrs. Blues
TTITLE2=Talking out My Head
TTITLE3=Most Wanted
TTITLE4=Love Came Knocking
TTITLE5=Read 'Em and Weep
TTITLE6=Beautiful Moments
TTITLE7=Each Kiss
TTITLE8=One Lie Leads to Another
TTITLE9=Spell It Out
TTITLE10=I Want To
TTITLE11=Exception to the Rule
TTITLE12=These Lonely Hours
TTITLE13=Your Barn Door's Open
TTITLE14=Loveaholic
EXTD=
EXTT0=
EXTT1=
EXTT2=
EXTT3=
EXTT4=
EXTT5=
EXTT6=
EXTT7=
EXTT8=
EXTT9=
EXTT10=
EXTT11=
EXTT12=
EXTT13=
EXTT14=
PLAYORDER=
